<svg width="132" height="132" viewBox="0 0 132 132" fill="none" xmlns="http://www.w3.org/2000/svg">
<path d="M63.8448 2.22583C65.0237 1.00831 66.9763 1.00831 68.1552 2.22583L74.3329 8.60585C75.2349 9.53743 76.6334 9.78401 77.7996 9.21713L85.7868 5.33475C87.311 4.59386 89.1459 5.26171 89.8373 6.80901L93.4603 14.9172C93.9893 16.1011 95.2191 16.8111 96.5089 16.6773L105.342 15.7608C107.028 15.5859 108.524 16.841 108.644 18.5315L109.276 27.3898C109.368 28.6832 110.281 29.771 111.538 30.0864L120.152 32.2464C121.796 32.6586 122.773 34.3497 122.308 35.9794L119.871 44.5194C119.515 45.7664 120.001 47.1008 121.075 47.8273L128.431 52.8032C129.835 53.7528 130.174 55.6758 129.18 57.0482L123.969 64.2399C123.208 65.29 123.208 66.71 123.969 67.7601L129.18 74.9518C130.174 76.3242 129.835 78.2472 128.431 79.1967L121.075 84.1727C120.001 84.8992 119.515 86.2336 119.871 87.4806L122.308 96.0206C122.773 97.6503 121.796 99.3414 120.152 99.7536L111.538 101.914C110.281 102.229 109.368 103.317 109.276 104.61L108.644 113.468C108.524 115.159 107.028 116.414 105.342 116.239L96.5089 115.323C95.2191 115.189 93.9893 115.899 93.4603 117.083L89.8373 125.191C89.1459 126.738 87.311 127.406 85.7868 126.665L77.7996 122.783C76.6334 122.216 75.2349 122.463 74.3329 123.394L68.1552 129.774C66.9763 130.992 65.0237 130.992 63.8448 129.774L57.6671 123.394C56.7651 122.463 55.3666 122.216 54.2004 122.783L46.2132 126.665C44.689 127.406 42.8541 126.738 42.1627 125.191L38.5397 117.083C38.0107 115.899 36.7809 115.189 35.4911 115.323L26.6578 116.239C24.9721 116.414 23.4762 115.159 23.3558 113.468L22.7244 104.61C22.6322 103.317 21.7194 102.229 20.4616 101.914L11.8476 99.7536C10.2037 99.3414 9.22738 97.6503 9.69233 96.0206L12.1288 87.4806C12.4845 86.2336 11.9988 84.8992 10.9248 84.1727L3.56895 79.1968C2.16522 78.2472 1.82614 76.3242 2.82045 74.9518L8.03081 67.7601C8.79159 66.71 8.79159 65.29 8.03081 64.2399L2.82045 57.0482C1.82614 55.6758 2.16522 53.7528 3.56895 52.8032L10.9248 47.8273C11.9988 47.1008 12.4845 45.7664 12.1288 44.5194L9.69233 35.9794C9.22738 34.3497 10.2037 32.6586 11.8476 32.2464L20.4616 30.0864C21.7194 29.771 22.6322 28.6832 22.7244 27.3898L23.3558 18.5315C23.4762 16.8411 24.9721 15.5859 26.6578 15.7608L35.4911 16.6773C36.7809 16.8111 38.0107 16.1011 38.5397 14.9172L42.1627 6.80901C42.8541 5.26172 44.689 4.59387 46.2132 5.33475L54.2004 9.21713C55.3666 9.78401 56.7651 9.53743 57.6671 8.60585L63.8448 2.22583Z" fill="#198941"/>
<path d="M29.3972 54.9036H32.2492L32.9998 51.1809H29.6974L30.3879 47.7585H33.6602L34.771 42.0544H38.4036L37.2928 47.7585H41.1055L42.2163 42.0544H45.8489L44.7381 47.7585H47.8303L47.1398 51.1809H44.0776L43.3571 54.9036H46.7795L46.089 58.326H42.6966L41.5859 64H37.9533L39.0641 58.326H35.2213L34.1106 64H30.478L31.5888 58.326H28.7067L29.3972 54.9036ZM35.8818 54.9036H39.7245L40.445 51.1809H36.6323L35.8818 54.9036ZM66.5561 63.97L51.3353 64V61.118L58.5104 55.0537C61.4825 52.5319 62.4732 51.0909 62.4732 48.9894C62.4732 46.4976 61.1222 45.0866 58.8106 45.0866C56.4089 45.0866 54.9078 46.7678 54.8778 49.5898H51.0651C51.0951 44.7864 54.1573 41.6642 58.8106 41.6642C63.4939 41.6642 66.4059 44.3361 66.4059 48.7792C66.4059 51.8414 64.7248 54.153 61.3924 57.005L57.4296 60.3974H66.5561V63.97ZM82.7335 57.5454L77.9902 64H73.6071L78.8608 57.005C78.3204 57.1551 77.75 57.2452 77.2096 57.2452C72.6764 57.2452 69.6142 54.063 69.6142 49.6198C69.6142 44.9365 73.0967 41.6642 77.78 41.6642C82.5234 41.6642 86.0659 45.1466 86.0659 49.6498C86.0659 52.2917 85.1953 54.2131 82.7335 57.5454ZM82.1331 49.6198C82.1331 46.9479 80.3619 45.0866 77.78 45.0866C75.2582 45.0866 73.487 46.9479 73.487 49.6198C73.487 52.2617 75.2582 54.093 77.78 54.093C80.3919 54.093 82.1331 52.2617 82.1331 49.6198ZM104.447 63.97L89.2266 64V61.118L96.4017 55.0537C99.3738 52.5319 100.364 51.0909 100.364 48.9894C100.364 46.4976 99.0135 45.0866 96.7019 45.0866C94.3002 45.0866 92.7991 46.7678 92.7691 49.5898H88.9564C88.9864 44.7864 92.0486 41.6642 96.7019 41.6642C101.385 41.6642 104.297 44.3361 104.297 48.7792C104.297 51.8414 102.616 54.153 99.2837 57.005L95.3209 60.3974H104.447V63.97ZM27.1249 80.6223C26.5315 80.6223 26.0653 80.1561 26.0653 79.5769C26.0653 78.9976 26.5315 78.5455 27.1249 78.5455C27.69 78.5455 28.1562 78.9976 28.1562 79.5769C28.1562 80.1561 27.69 80.6223 27.1249 80.6223ZM26.2631 89V82.0209H27.9867V89H26.2631ZM31.9148 89H30.1913V82.0209H31.7877L31.929 82.9251C32.3669 82.2187 33.2146 81.809 34.1611 81.809C35.913 81.809 36.8171 82.8969 36.8171 84.7052V89H35.0936V85.1149C35.0936 83.9423 34.5143 83.3772 33.6243 83.3772C32.5647 83.3772 31.9148 84.1118 31.9148 85.242V89ZM45.5395 89H43.8159V83.462H42.4738V82.0209H43.8159V79.8453H45.5395V82.0209H46.8958V83.462H45.5395V89ZM50.1147 89H48.3911V78.489H50.1288V82.9251C50.5668 82.247 51.3862 81.809 52.3892 81.809C54.1128 81.809 55.017 82.8969 55.017 84.7052V89H53.2934V85.1149C53.2934 83.9423 52.7142 83.3772 51.8382 83.3772C50.7504 83.3772 50.1147 84.1401 50.1147 85.1855V89ZM60.2565 89.1837C58.1797 89.1837 56.7245 87.672 56.7245 85.5105C56.7245 83.3207 58.1514 81.809 60.1999 81.809C62.2908 81.809 63.6188 83.2077 63.6188 85.3833V85.906L58.3634 85.9202C58.4905 87.1493 59.1404 87.7709 60.2847 87.7709C61.2313 87.7709 61.8529 87.4036 62.0507 86.7396H63.6471C63.3504 88.2654 62.0789 89.1837 60.2565 89.1837ZM60.2141 83.2218C59.1969 83.2218 58.5753 83.7728 58.4057 84.8182H61.9094C61.9094 83.8575 61.2454 83.2218 60.2141 83.2218ZM71.1937 89L68.9333 82.0209H70.7275L71.6458 85.016C71.8012 85.567 71.9425 86.1745 72.0696 86.8243C72.1968 86.1462 72.3239 85.7083 72.5499 85.016L73.5106 82.0209H75.2625L76.1949 85.016C76.2797 85.2986 76.5622 86.344 76.647 86.8102C76.76 86.2875 76.986 85.454 77.1132 85.016L78.0456 82.0209H79.8681L77.4522 89H75.8417L74.881 85.9767C74.5985 85.0584 74.4431 84.3944 74.3865 84.0412C74.3159 84.3661 74.1888 84.8606 73.8356 86.0049L72.8749 89H71.1937ZM80.581 85.4963C80.581 83.3207 82.1491 81.8231 84.3107 81.8231C86.4722 81.8231 88.0404 83.3207 88.0404 85.4963C88.0404 87.672 86.4722 89.1695 84.3107 89.1695C82.1491 89.1695 80.581 87.672 80.581 85.4963ZM82.3045 85.4963C82.3045 86.7678 83.124 87.6296 84.3107 87.6296C85.4974 87.6296 86.3168 86.7678 86.3168 85.4963C86.3168 84.2249 85.4974 83.3631 84.3107 83.3631C83.124 83.3631 82.3045 84.2249 82.3045 85.4963ZM94.21 81.9927V83.5891H93.5742C92.331 83.5891 91.554 84.2531 91.554 85.6094V89H89.8304V82.0351H91.4551L91.554 83.0523C91.8507 82.36 92.5147 81.8938 93.4471 81.8938C93.6872 81.8938 93.9274 81.922 94.21 81.9927ZM97.5381 89H95.8287V78.489H97.5381V89ZM102.638 89.1837C100.618 89.1837 99.3603 87.7003 99.3603 85.5387C99.3603 83.3631 100.632 81.809 102.737 81.809C103.712 81.809 104.573 82.2187 105.011 82.911V78.489H106.721V89H105.138L105.025 87.9122C104.602 88.7174 103.697 89.1837 102.638 89.1837ZM103.019 87.6014C104.22 87.6014 104.997 86.7396 104.997 85.4822C104.997 84.2249 104.22 83.3489 103.019 83.3489C101.818 83.3489 101.084 84.239 101.084 85.4822C101.084 86.7254 101.818 87.6014 103.019 87.6014Z" fill="#E0E0E0"/>
</svg>
