<svg width="24" height="24" viewBox="0 0 24 24" fill="none" xmlns="http://www.w3.org/2000/svg">
<g clip-path="url(#clip0_7636_6050)">
<path d="M4.3916 15.2446C1.44341 13.7705 1.44341 9.56247 4.3916 8.08838L13.0352 3.76709C13.4783 3.54552 13.9997 3.86745 14 4.36279L14 18.9702C13.9997 19.4656 13.4783 19.7875 13.0352 19.5659L4.3916 15.2446Z" stroke="#898989" stroke-width="2"/>
<path d="M18.3335 16.6665C19.1143 16.4535 19.8363 15.9811 20.4116 15.2927C21.2153 14.331 21.6668 13.0266 21.6668 11.6665C21.6668 10.3064 21.2153 9.00204 20.4116 8.04031C19.8363 7.35193 19.1143 6.87946 18.3335 6.6665" stroke="#898989" stroke-width="1.66667" stroke-linecap="round"/>
<path d="M17.5003 11.1603C17.5003 10.9796 17.6523 10.8274 17.8192 10.8965C17.9203 10.9384 18.0122 10.9998 18.0896 11.0772C18.167 11.1545 18.2283 11.2464 18.2702 11.3475C18.3121 11.4486 18.3337 11.557 18.3337 11.6664C18.3337 11.7759 18.3121 11.8842 18.2702 11.9853C18.2283 12.0864 18.167 12.1783 18.0896 12.2557C18.0122 12.3331 17.9203 12.3944 17.8192 12.4363C17.6523 12.5055 17.5003 12.3532 17.5003 12.1725L17.5003 11.6664L17.5003 11.1603Z" fill="#898989" stroke="#898989" stroke-width="0.833333"/>
</g>
<defs>
<clipPath id="clip0_7636_6050">
<rect width="23.3333" height="23.3333" fill="white"/>
</clipPath>
</defs>
</svg>
